<?xml version="1.0" encoding="utf-8"?>
<!-- Generator: Adobe Illustrator 19.1.0, SVG Export Plug-In . SVG Version: 6.00 Build 0)  -->
<svg version="1.1" xmlns="http://www.w3.org/2000/svg" xmlns:xlink="http://www.w3.org/1999/xlink" x="0px" y="0px"
	 viewBox="0 0 90.2 217.9" style="enable-background:new 0 0 90.2 217.9;" xml:space="preserve">
<style type="text/css">
	.st0{fill:#323232;}
	.st1{display:none;}
	.st2{fill:none;}
	.st3{fill:#ED1C24;}
	.st4{fill:#FFFFFF;stroke:#9B8579;stroke-miterlimit:10;}
	.st5{fill:#F1F2F2;}
</style>
<g id="Layer_2">
	<path class="st0" d="M27.6,107H3.7c-2,0-3.7-1.7-3.7-3.7v0c0-2,1.7-3.7,3.7-3.7h23.9c2,0,3.7,1.7,3.7,3.7v0
		C31.3,105.3,29.7,107,27.6,107z"/>
	<path class="st0" d="M16.3,101.7L16.3,101.7c1.7,0,3.2,1.4,3.2,3.2v10.4c0,1.7-1.4,3.2-3.2,3.2h0c-1.7,0-3.2-1.4-3.2-3.2v-10.4
		C13.2,103.1,14.6,101.7,16.3,101.7z"/>
	<path class="st0" d="M21,179.4h-8.3c-4.1,0-7.4-3.3-7.4-7.4v-48.7c0-4.1,3.3-7.4,7.4-7.4H21c4.1,0,7.4,3.3,7.4,7.4V172
		C28.4,176,25,179.4,21,179.4z"/>
	<path class="st0" d="M20.7,190.3h-7.5c-2.7,0-4.8-2.2-4.8-4.8V174c0-2.7,2.2-4.8,4.8-4.8h7.5c2.7,0,4.8,2.2,4.8,4.8v11.5
		C25.5,188.1,23.3,190.3,20.7,190.3z"/>
	<polygon id="drill" class="st0" points="19.3,207 19.3,187.7 13.5,187.7 13.5,207 9,207 9,212.2 23.5,212.2 23.5,207 	"/>
</g>
<g id="Layer_1">
	<g id="B08fiw.tif" class="st1">
		
			<image style="display:inline;overflow:visible;" width="89" height="217" id="Layer_0_1_" xlink:href="45331BFE1F16A081.png"  transform="matrix(1 0 0 1 1 -1.5114)">
		</image>
	</g>
	<circle cx="54" cy="45.2" r="18"/>
	<line class="st2" x1="61" y1="67" x2="80.5" y2="118.5"/>
	<line class="st2" x1="80.5" y1="118.5" x2="51.5" y2="149.5"/>
	<g>
		<line x1="58.1" y1="68" x2="80.5" y2="118.5"/>
		<g>
			<path d="M55.9,69.3c7.5,16.8,15,33.6,22.4,50.5c1.3,2.9,5.6,0.4,4.3-2.5c-7.5-16.8-15-33.6-22.4-50.5
				C58.9,63.8,54.6,66.4,55.9,69.3L55.9,69.3z"/>
		</g>
	</g>
	<g>
		<line x1="80.5" y1="118.5" x2="51.5" y2="149.5"/>
		<g>
			<path d="M78.7,116.7c-9.7,10.3-19.3,20.7-29,31c-2.2,2.3,1.3,5.9,3.5,3.5c9.7-10.3,19.3-20.7,29-31
				C84.5,117.9,80.9,114.4,78.7,116.7L78.7,116.7z"/>
		</g>
	</g>
	<g>
		<line x1="80.5" y1="118.5" x2="70.8" y2="157"/>
		<g>
			<path d="M78.1,117.8c-3.2,12.8-6.5,25.7-9.8,38.5c-0.8,3.1,4,4.5,4.8,1.3c3.2-12.8,6.5-25.7,9.8-38.5
				C83.7,116,78.9,114.7,78.1,117.8L78.1,117.8z"/>
		</g>
	</g>
	<g>
		<line x1="70.4" y1="157" x2="70.3" y2="215.5"/>
		<g>
			<path d="M67.9,157c0,19.5,0,39-0.1,58.5c0,3.2,5,3.2,5,0c0-19.5,0-39,0.1-58.5C72.9,153.8,67.9,153.8,67.9,157L67.9,157z"/>
		</g>
	</g>
	<g>
		<line x1="51.5" y1="149.7" x2="54" y2="209"/>
		<g>
			<path d="M49,149.7c0.8,19.8,1.7,39.5,2.5,59.2c0.1,3.2,5.1,3.2,5,0c-0.8-19.8-1.7-39.5-2.5-59.2C53.9,146.5,48.9,146.5,49,149.7
				L49,149.7z"/>
		</g>
	</g>
	<g>
		<line x1="65.1" y1="67" x2="51.9" y2="96.6"/>
		<g>
			<path d="M62.9,65.7c-4.4,9.9-8.8,19.8-13.1,29.6c-1.3,2.9,3,5.5,4.3,2.5c4.4-9.9,8.8-19.8,13.1-29.6
				C68.5,65.3,64.2,62.8,62.9,65.7L62.9,65.7z"/>
		</g>
	</g>
	<g>
		<line x1="51.5" y1="97.4" x2="23.7" y2="101.7"/>
		<g>
			<path d="M50.8,95c-9.2,1.4-18.5,2.9-27.7,4.3c-3.2,0.5-1.8,5.3,1.3,4.8c9.2-1.4,18.5-2.9,27.7-4.3C55.3,99.3,54,94.5,50.8,95
				L50.8,95z"/>
		</g>
	</g>
	<g>
		<line x1="57.1" y1="68.3" x2="33.5" y2="90"/>
		<g>
			<path d="M55.3,66.6C47.4,73.8,39.6,81,31.7,88.2c-2.4,2.2,1.2,5.7,3.5,3.5c7.9-7.2,15.7-14.4,23.6-21.7
				C61.2,67.9,57.7,64.4,55.3,66.6L55.3,66.6z"/>
		</g>
	</g>
	<g>
		<line x1="33.5" y1="90" x2="7.7" y2="96.6"/>
		<g>
			<path d="M32.8,87.6C24.2,89.8,15.6,92,7,94.2C3.9,95,5.2,99.8,8.3,99c8.6-2.2,17.2-4.4,25.8-6.6C37.3,91.6,36,86.8,32.8,87.6
				L32.8,87.6z"/>
		</g>
	</g>
	<g>
		<line x1="65.1" y1="66" x2="58.1" y2="68"/>
		<g>
			<path d="M64.4,63.6c-2.3,0.7-4.7,1.3-7,2c-3.1,0.9-1.8,5.7,1.3,4.8c2.3-0.7,4.7-1.3,7-2C68.8,67.6,67.5,62.7,64.4,63.6L64.4,63.6
				z"/>
		</g>
	</g>
	<g>
		<g>
			<path d="M22.3,99.6c-2.9,1.1-4.3,4.1-3.4,7c0.9,3.1,3.7,4.7,6.2,6.5c2.6,1.9,5.1-2.4,2.5-4.3c-1.1-0.8-2.3-1.4-3.2-2.4
				c-0.3-0.4-0.7-0.8-0.7-1.3c0-0.4,0.3-0.8,0-0.7C26.7,103.3,25.4,98.5,22.3,99.6L22.3,99.6z"/>
		</g>
	</g>
	<g>
		<g>
			<path d="M7.2,94.3c-4,0.2-6.2,3.4-6.1,7.3c0.1,3.7,2.9,6.9,6.6,7.7c3.1,0.6,4.5-4.2,1.3-4.8c-1.3-0.2-2.4-0.9-2.8-2.3
				c-0.2-0.8-0.1-1.8,0.2-2.6c0.1-0.2-0.4,0,0.2-0.2c0.2-0.1,0.3-0.1,0.5-0.1C10.4,99.1,10.4,94.1,7.2,94.3L7.2,94.3z"/>
		</g>
	</g>
	<g>
		<path class="st3" d="M74.6,0c-2.4,0-4.8,0.8-7.1,1.5c-6.4,2.2-13,4.7-17.9,9.1c-7,6.5-9.6,16.1-10.6,25.3c9.6-3.1,20.4-2.8,29.8,1
			l1.2,1.3c-1.5-6.3-1.6-12.9-0.4-19.3c0.7-3.5,2.3-7.4,5.9-8.4c1.3-0.4,2.6-0.3,3.9-0.6c2.5-0.6,4.4-2.6,4.8-5
			C82.1,1.9,78.4,0,74.6,0z"/>
	</g>
	<circle class="st4" cx="83.3" cy="11.7" r="6.4"/>
	<g>
		<path class="st5" d="M70.6,33.2c-0.6-2-1.8-3.9-3.6-4.9c-1.6-0.9-3.6-1-5.5-1.1c-4.4-0.2-8.9-0.3-13.2,0.7c-3.1,0.7-6.1,2-9.2,1.9
			c-0.4,0-0.8,0-1.1,0.2c-0.2,0.2-0.3,0.6-0.3,0.9c-0.2,1.8-0.2,3.6,0,5.4c0.1,0.5,0.2,1,0.6,1.2c0.4,0.2,0.8,0.1,1.2-0.1
			c9.9-3.4,20.9-1.5,30.7,2.2l1.1-0.3C71.3,37.2,71.2,35.1,70.6,33.2z"/>
	</g>
</g>
</svg>
